<svg xmlns="http://www.w3.org/2000/svg" xmlns:xlink="http://www.w3.org/1999/xlink" xml:space="preserve" version="1.1" style="shape-rendering:geometricPrecision;text-rendering:geometricPrecision;image-rendering:optimizeQuality;" viewBox="0 0 426 426.25" x="0px" y="0px" fill-rule="evenodd" clip-rule="evenodd"><defs><style type="text/css">
   
    .fil1 {fill:black;fill-rule:nonzero}
    .fil0 {fill:black;fill-rule:nonzero}
   
  </style></defs><g><path class="fil0" d="M65 247c-5,0 -9,-4 -9,-10 0,-5 4,-9 9,-9l85 0c5,0 10,4 10,9 0,6 -5,10 -10,10l-85 0z"/><path class="fil1" d="M68 68l0 -28c0,-22 18,-40 40,-40l278 0c22,0 40,18 40,40l0 193c0,22 -18,40 -40,40l-28 0 0 28c0,22 -18,40 -40,40l-278 0c-22,0 -40,-18 -40,-40l0 -193c0,-22 18,-40 40,-40l28 0zm290 186l28 0c11,0 20,-9 20,-21l0 -193c0,-11 -9,-21 -20,-21l-278 0c-12,0 -21,10 -21,21l0 28 231 0c22,0 40,18 40,40l0 146zm-339 -118l320 0 0 -28c0,-12 -10,-21 -21,-21l-278 0c-11,0 -21,9 -21,21l0 28zm320 45l-320 0 0 120c0,11 10,21 21,21l278 0c11,0 21,-10 21,-21l0 -120z"/><path class="fil0" d="M65 287c-5,0 -9,-5 -9,-10 0,-5 4,-10 9,-10l85 0c5,0 10,5 10,10 0,5 -5,10 -10,10l-85 0z"/></g><text x="0" y="356" fill="#000000" font-size="5px" font-weight="bold" font-family="'Helvetica Neue', Helvetica, Arial-Unicode, Arial, Sans-serif">Created by iejank</text><text x="0" y="361" fill="#000000" font-size="5px" font-weight="bold" font-family="'Helvetica Neue', Helvetica, Arial-Unicode, Arial, Sans-serif">from the Noun Project</text></svg>