<svg xmlns="http://www.w3.org/2000/svg" xmlns:xlink="http://www.w3.org/1999/xlink" xml:space="preserve" version="1.1" style="shape-rendering:geometricPrecision;text-rendering:geometricPrecision;image-rendering:optimizeQuality;" viewBox="0 0 847 1058.75" x="0px" y="0px" fill-rule="evenodd" clip-rule="evenodd"><defs><style type="text/css">
   
    .fil0 {fill:black;fill-rule:nonzero}
   
  </style></defs><g><path class="fil0" d="M130 399c-7,5 -18,3 -23,-5 -5,-8 -3,-18 4,-23l301 -204c5,-4 13,-3 18,0l305 204c8,5 10,15 5,23 -5,8 -16,10 -24,5l-295 -197 -291 197zm48 266l0 -257c0,-6 4,-12 9,-15l227 -152c6,-4 14,-4 19,0l228 153c5,4 8,9 8,14l0 257c0,10 -8,17 -17,17l-457 0c-9,0 -17,-7 -17,-17zm34 -248l0 231 423 0 0 -231 -212 -142 -211 142z"/></g><text x="0" y="862" fill="#000000" font-size="5px" font-weight="bold" font-family="'Helvetica Neue', Helvetica, Arial-Unicode, Arial, Sans-serif">Created by alex setyawan</text><text x="0" y="867" fill="#000000" font-size="5px" font-weight="bold" font-family="'Helvetica Neue', Helvetica, Arial-Unicode, Arial, Sans-serif">from the Noun Project</text></svg>