<svg xmlns="http://www.w3.org/2000/svg" xmlns:xlink="http://www.w3.org/1999/xlink" version="1.1" x="0px" y="0px" viewBox="0 0 100 125" enable-background="new 0 0 100 100" xml:space="preserve"><path d="M66.207,49.793l-5-5c-0.391-0.391-1.023-0.391-1.414,0s-0.391,1.023,0,1.414l3.293,3.293H48.5c-0.553,0-1,0.447-1,1  s0.447,1,1,1h14.586l-3.293,3.293c-0.391,0.391-0.391,1.023,0,1.414c0.195,0.195,0.451,0.293,0.707,0.293s0.512-0.098,0.707-0.293  l5-5C66.598,50.816,66.598,50.184,66.207,49.793z M56.5,54.5c-0.553,0-1,0.447-1,1v3c0,1.654-1.346,3-3,3h-9c-1.654,0-3-1.346-3-3  v-16c0-1.654,1.346-3,3-3h9c1.654,0,3,1.346,3,3v3c0,0.553,0.447,1,1,1s1-0.447,1-1v-3c0-2.757-2.243-5-5-5h-9c-2.757,0-5,2.243-5,5  v16c0,2.757,2.243,5,5,5h9c2.757,0,5-2.243,5-5v-3C57.5,54.947,57.053,54.5,56.5,54.5z"/><text x="0" y="115" fill="#000000" font-size="5px" font-weight="bold" font-family="'Helvetica Neue', Helvetica, Arial-Unicode, Arial, Sans-serif">Created by Sergey Demushkin</text><text x="0" y="120" fill="#000000" font-size="5px" font-weight="bold" font-family="'Helvetica Neue', Helvetica, Arial-Unicode, Arial, Sans-serif">from the Noun Project</text></svg>