<svg xmlns="http://www.w3.org/2000/svg" xmlns:xlink="http://www.w3.org/1999/xlink" version="1.1" x="0px" y="0px" viewBox="0 0 100 125" enable-background="new 0 0 100 100" xml:space="preserve"><path d="M81.037,51.909V21.41c0-8.171-10.271-14.571-23.384-14.571S34.27,13.239,34.27,21.41v0.001  c-13.112,0-23.384,6.4-23.384,14.571v34.773c0,8.171,10.271,14.572,23.384,14.572c4.485,0,8.636-0.753,12.158-2.065  c4.264,5.989,11.257,9.899,19.168,9.899c12.989,0,23.52-10.53,23.52-23.521C89.115,62.563,85.984,56.222,81.037,51.909z   M57.653,9.839c11.049,0,20.384,5.299,20.384,11.571s-9.335,11.572-20.384,11.572c-0.161,0-0.32-0.008-0.48-0.011  c-1.976-6.083-9.854-10.671-19.896-11.442c-0.001-0.04-0.008-0.079-0.008-0.119C37.27,15.138,46.604,9.839,57.653,9.839z   M71.887,46.979c-2.003-0.555-4.111-0.857-6.291-0.857c-2.788,0-5.461,0.488-7.942,1.379v-2.825c8.854,0,16.408-2.921,20.384-7.333  v1.454C78.037,41.958,75.655,44.867,71.887,46.979z M78.037,46.036v1.454c0,0.676-0.128,1.337-0.337,1.984  c-0.713-0.429-1.451-0.817-2.211-1.171C76.448,47.603,77.307,46.847,78.037,46.036z M57.653,41.676v-5.693  c8.854,0,16.408-2.921,20.384-7.333v1.454C78.037,36.376,68.702,41.676,57.653,41.676z M34.27,24.411  c11.049,0,20.384,5.299,20.384,11.571S45.318,47.555,34.27,47.555s-20.384-5.3-20.384-11.572S23.221,24.411,34.27,24.411z   M13.886,43.222c3.976,4.412,11.529,7.333,20.384,7.333s16.408-2.921,20.384-7.333v1.454c0,6.272-9.335,11.572-20.384,11.572  s-20.384-5.3-20.384-11.572V43.222z M13.886,51.915c3.976,4.412,11.529,7.333,20.384,7.333c4.075,0,7.865-0.627,11.167-1.725  c-1.166,1.935-2.061,4.051-2.633,6.296c-2.615,0.709-5.503,1.122-8.534,1.122c-11.049,0-20.384-5.3-20.384-11.572V51.915z   M13.886,60.608c3.976,4.412,11.529,7.333,20.384,7.333c2.805,0,5.474-0.298,7.945-0.839c-0.09,0.834-0.139,1.682-0.139,2.539  c0,1.023,0.072,2.029,0.199,3.018c-2.474,0.621-5.18,0.976-8.006,0.976c-11.049,0-20.384-5.3-20.384-11.572V60.608z M34.27,82.328  c-11.049,0-20.384-5.3-20.384-11.572v-1.454c3.976,4.412,11.529,7.333,20.384,7.333c3.049,0,5.936-0.355,8.583-0.99  c0.457,1.737,1.109,3.396,1.93,4.95C41.688,81.683,38.089,82.328,34.27,82.328z M65.596,90.162c-11.314,0-20.52-9.205-20.52-20.521  c0-11.314,9.205-20.52,20.52-20.52s20.52,9.205,20.52,20.52C86.115,80.957,76.91,90.162,65.596,90.162z M72.092,71.064  c-0.574-0.591-1.281-1.118-2.12-1.577s-1.993-0.959-3.464-1.5c-1.471-0.539-2.512-1.111-3.127-1.713  c-0.614-0.605-0.922-1.404-0.922-2.406c0-1.113,0.31-1.969,0.93-2.566c0.621-0.598,1.482-0.896,2.585-0.896  c1.115,0,1.997,0.416,2.646,1.25c0.649,0.832,0.974,1.973,0.974,3.42h4.171c0-2.251-0.546-4.081-1.637-5.488  c-1.092-1.408-2.637-2.255-4.637-2.543v-3.791h-2.756v3.758c-1.988,0.229-3.563,0.959-4.723,2.188s-1.74,2.797-1.74,4.704  c0,2.814,1.339,4.941,4.016,6.377c0.803,0.436,1.93,0.91,3.378,1.422c1.446,0.511,2.481,1.086,3.101,1.723  c0.621,0.639,0.931,1.445,0.931,2.421c0,1.046-0.342,1.886-1.024,2.517c-0.686,0.631-1.681,0.947-2.99,0.947  c-1.333,0-2.364-0.396-3.094-1.189c-0.73-0.793-1.096-1.91-1.096-3.359h-4.187c0,2.274,0.611,4.102,1.835,5.479  c1.225,1.38,2.974,2.195,5.249,2.448v3.342h2.739v-3.36c2.125-0.218,3.783-0.93,4.972-2.138c1.189-1.205,1.785-2.778,1.785-4.721  c0-1.033-0.156-1.936-0.467-2.705S72.667,71.655,72.092,71.064z"/><text x="0" y="115" fill="#000000" font-size="5px" font-weight="bold" font-family="'Helvetica Neue', Helvetica, Arial-Unicode, Arial, Sans-serif">Created by Sergey Demushkin</text><text x="0" y="120" fill="#000000" font-size="5px" font-weight="bold" font-family="'Helvetica Neue', Helvetica, Arial-Unicode, Arial, Sans-serif">from the Noun Project</text></svg>