<svg xmlns="http://www.w3.org/2000/svg" viewBox="0 0 24 30" x="0px" y="0px"><defs><style>.cls-1{fill:none;}</style></defs><title>requests</title><g data-name="Ebene 2"><g data-name="Ebene 1"><rect class="cls-1" width="24" height="24"/></g><g data-name="requests o Kopie"><polygon points="19.5 12 19.5 19.5 4.5 19.5 4.5 12 3.5 12 3.5 20.5 20.5 20.5 20.5 12 19.5 12"/><polygon points="8.57 6.67 8.57 17.5 9.57 17.5 9.57 6.75 11.11 8.29 11.81 7.58 9.03 4.79 6.19 7.63 6.89 8.34 8.57 6.67"/><polygon points="17.81 14.37 17.11 13.66 15.43 15.33 15.43 4.5 14.43 4.5 14.43 15.25 12.89 13.71 12.19 14.42 14.97 17.21 17.81 14.37"/></g></g><text x="0" y="39" fill="#000000" font-size="5px" font-weight="bold" font-family="'Helvetica Neue', Helvetica, Arial-Unicode, Arial, Sans-serif">Created by zena</text><text x="0" y="44" fill="#000000" font-size="5px" font-weight="bold" font-family="'Helvetica Neue', Helvetica, Arial-Unicode, Arial, Sans-serif">from the Noun Project</text></svg>