<svg xmlns="http://www.w3.org/2000/svg" xmlns:xlink="http://www.w3.org/1999/xlink" version="1.1" x="0px" y="0px" viewBox="0 0 100 125" enable-background="new 0 0 100 100" xml:space="preserve"><path d="M92.914,9.085c-0.563-0.56-1.402-0.736-2.141-0.45l-82,32c-0.694,0.272-1.183,0.906-1.261,1.648  C7.43,43.023,7.77,43.75,8.39,44.164l29.666,19.78l19.78,29.668c0.371,0.557,1,0.889,1.664,0.889c0.07,0,0.141-0.004,0.215-0.012  c0.742-0.082,1.375-0.566,1.648-1.264l32-82C93.65,10.49,93.473,9.648,92.914,9.085z M13.804,42.966L83.34,15.833L39.245,59.928  L13.804,42.966z M59.031,88.197L42.075,62.756L86.17,18.66L59.031,88.197z"/><text x="0" y="115" fill="#000000" font-size="5px" font-weight="bold" font-family="'Helvetica Neue', Helvetica, Arial-Unicode, Arial, Sans-serif">Created by Sergey Demushkin</text><text x="0" y="120" fill="#000000" font-size="5px" font-weight="bold" font-family="'Helvetica Neue', Helvetica, Arial-Unicode, Arial, Sans-serif">from the Noun Project</text></svg>